<?xml version="1.0" encoding="utf-8" ?><svg xmlns="http://www.w3.org/2000/svg" xmlns:xlink="http://www.w3.org/1999/xlink" width="864" height="864" viewBox="0 0 864 864"><path fill="#0A1B2F" transform="matrix(1.728 0 0 1.728 0.0078125 0)" d="M239.605 54.4751C347.62 48.7329 439.837 131.642 445.575 239.657C451.314 347.671 368.402 439.886 260.387 445.621C152.378 451.356 60.1681 368.448 54.4295 260.439C48.6909 152.429 131.596 60.2171 239.605 54.4751ZM268.452 418.01C267.265 418.112 267.246 417.92 266.444 418.516C266.985 419.266 267.938 418.854 268.739 418.646L268.452 418.01Z"/><path fill="#D7AF38" transform="matrix(1.728 0 0 1.728 0.0078125 0)" d="M247.557 62.631C350.882 61.3514 435.732 143.975 437.199 247.297C438.666 350.619 356.197 435.619 252.878 437.275C149.293 438.934 64.0261 356.206 62.5548 252.618C61.0836 149.03 143.966 63.914 247.557 62.631ZM268.452 418.01C267.265 418.112 267.246 417.92 266.444 418.516C266.985 419.266 267.938 418.854 268.739 418.646L268.452 418.01Z"/><path fill="#0A1B2F" transform="matrix(1.728 0 0 1.728 0.0078125 0)" d="M245.136 65.9042C346.803 63.2889 431.342 143.584 433.962 245.251C436.582 346.918 356.292 431.46 254.625 434.085C152.951 436.71 68.4016 356.413 65.7814 254.739C63.1611 153.065 143.462 68.5196 245.136 65.9042ZM268.452 418.01C267.265 418.112 267.246 417.92 266.444 418.516C266.985 419.266 267.938 418.854 268.739 418.646L268.452 418.01Z"/><path fill="#D7AF38" transform="matrix(1.728 0 0 1.728 0.0078125 0)" d="M143.913 287.462C125.866 236.377 146.795 179.685 193.707 152.58C240.619 125.475 300.187 135.658 335.431 176.808C335.777 177.212 336.121 177.619 336.461 178.028C343.679 186.702 349.551 196.412 353.88 206.832C354.361 207.991 354.823 209.157 355.265 210.331C374.552 261.53 354.208 319.181 307.059 346.937C259.911 374.692 199.631 364.504 164.224 322.794C163.6 322.059 162.986 321.317 162.381 320.566C155.013 311.42 149.123 301.177 144.924 290.209C144.575 289.298 144.238 288.382 143.913 287.462Z"/><path fill="#0A1B2F" transform="matrix(1.728 0 0 1.728 0.0078125 0)" d="M223.604 191.921C224.477 189.047 225.211 184.208 225.994 180.979C228.183 171.947 230.782 163.014 234.978 154.679C237.204 150.258 241.266 143.193 246.302 141.608C248.688 140.857 253.326 140.898 255.437 142.357C264.942 148.931 270.192 166.803 273.2 177.631C274.544 182.471 275.195 187.295 276.369 191.879C277.375 192.217 278.639 192.513 279.682 192.788C276.419 175.89 271.872 154.499 259.836 141.563C282.55 145.53 300.259 163.689 310.43 183.56L311.15 184.835C313.538 189.761 316.613 196.228 318.256 201.496C313.339 201.496 306.795 201.665 302.017 201.424C309.091 205.581 311.679 204.575 319.466 204.468C322.002 213.847 321.393 215.662 327.271 223.152C325.816 216.306 324.759 211.281 322.843 204.488C331.006 204.492 340.672 204.756 348.707 204.461C349.532 206.471 350.423 208.549 351.211 210.563L352.567 214.226C357.523 229.722 359.012 240.349 358.473 256.753L335.551 256.744C335.371 257.771 335.195 258.714 335.089 259.755L358.186 259.765C355.796 280.642 350.614 294.231 339.207 311.99L316.411 311.978C321.445 300.825 325.048 289.079 327.136 277.022C326.221 278.173 323.638 281.32 323.156 282.439C321.632 285.974 320.913 290.424 319.721 294.161C317.776 300.262 315.475 306.212 312.826 312.034C301.498 311.956 290.169 311.941 278.841 311.988L279.665 307.255C278.569 307.517 277.371 307.774 276.298 308.086C275.958 309.628 275.797 310.4 275.659 311.987L224.356 311.978C224.164 310.677 224.001 309.462 223.705 308.176C222.549 307.826 221.456 307.48 220.278 307.204L221.165 311.971C214.916 311.988 205.963 312.246 199.957 311.758C197.744 312.026 194.144 311.605 191.607 311.723C190.093 312.008 188.636 312.008 187.098 312.057C184.783 306.233 182.22 300.902 180.406 294.763C179.294 290.998 178.435 286.809 177.187 283.163C176.684 281.695 173.87 278.351 172.789 276.967C175.422 290.397 177.945 299.426 183.562 311.953L160.762 311.974C154.806 302.505 151.488 296.605 147.553 286.052L146.916 284.288C143.933 274.728 143.049 269.522 141.795 259.761L164.815 259.778L164.518 256.777L141.551 256.762C140.948 236.138 143.215 223.531 151.35 204.473L177.203 204.5C175.331 211.04 173.988 216.317 172.834 222.977C178.699 215.523 178.002 213.72 180.616 204.477C189.18 204.583 190.951 205.604 198.335 201.201C194.246 201.743 186.145 201.508 181.767 201.502C189.482 174.668 211.704 146.956 240.182 141.553C227.86 154.83 223.814 175.519 220.272 192.781L223.604 191.921Z"/><defs><linearGradient id="gradient_0" gradientUnits="userSpaceOnUse" x1="335.43738" y1="243.61351" x2="332.37766" y2="213.30421"><stop offset="0" stop-color="#1C2730"/><stop offset="1" stop-color="#3D3F3B"/></linearGradient></defs><path fill="url(#gradient_0)" transform="matrix(1.728 0 0 1.728 0.0078125 0)" d="M351.211 210.563L352.567 214.226C350.689 215.268 347.319 218.876 345.937 220.473C343.143 223.703 317.932 245.761 316.17 245.789C317.96 243.24 349.817 211.382 351.211 210.563Z"/><path fill="#46473C" transform="matrix(1.728 0 0 1.728 0.0078125 0)" d="M146.916 284.288C149.578 281.406 152.399 278.588 155.269 275.912C158.691 272.721 179.166 254.531 182.231 254.078C182.393 254.054 182.559 254.069 182.723 254.065L182.694 254.06C182.687 256.274 175.535 261.027 173.646 262.577C167.923 267.207 162.365 272.037 156.982 277.059C155.665 278.307 148.551 285.721 147.553 286.052L146.916 284.288Z"/><path fill="#686243" transform="matrix(1.728 0 0 1.728 0.0078125 0)" d="M224.9 300.688L225.371 301.131C219.311 303.449 213.62 306.217 207.691 308.835C206.362 309.421 200.59 311.331 199.957 311.758C197.744 312.026 194.144 311.605 191.607 311.723C193.047 311.463 197.492 309.682 199.107 309.009C207.297 305.599 216.774 303.952 224.9 300.688Z"/><defs><linearGradient id="gradient_1" gradientUnits="userSpaceOnUse" x1="293.03888" y1="189.88789" x2="294.11438" y2="192.15793"><stop offset="0" stop-color="#2C3133"/><stop offset="1" stop-color="#474840"/></linearGradient></defs><path fill="url(#gradient_1)" transform="matrix(1.728 0 0 1.728 0.0078125 0)" d="M310.43 183.56L311.15 184.835C310.129 185.308 307.515 186.134 306.315 186.601C302.567 187.792 298.619 189.697 294.913 190.869C290.173 192.369 282.067 197.488 277.488 197.894L277.279 197.701C278.1 196.824 279.426 196.216 280.517 195.715C288.52 192.038 296.514 188.431 304.884 185.657C306.725 185.046 308.667 184.336 310.43 183.56Z"/><path fill="#11202C" transform="matrix(1.728 0 0 1.728 0.0078125 0)" d="M224.9 300.688C226.025 300.226 227.736 299.394 228.869 299.505L228.833 299.772C228.171 300.234 226.161 301.002 225.371 301.131L224.9 300.688Z"/><path fill="#D7AF38" transform="matrix(1.728 0 0 1.728 0.0078125 0)" d="M221.606 210.848C228.187 209.993 232.418 214.079 238.186 216.231C241.317 217.4 242.07 213.421 243.706 212.616C244.922 212.998 244.828 215.291 244.7 216.365C244.342 219.382 245.291 233.445 244.283 235.288L243.029 235.269C242.598 234.975 242.416 234.872 242.219 234.365C241.896 233.533 241.887 232.44 241.663 231.551C240.898 228.518 239.966 225.531 238.52 222.747C236.515 218.887 233.809 215.764 229.508 214.45C225.938 213.36 221.845 213.695 218.579 215.545C213.725 218.295 211.17 224.001 209.766 229.141C206.261 241.975 205.84 264.379 212.599 276.152C214.508 279.477 217.335 282.546 221.182 283.501C224.632 284.358 228.693 283.34 231.639 281.416C234.014 279.866 235.256 278.007 235.83 275.265C236.373 272.666 236.873 253.921 235.954 252.503C234.687 252.507 231.203 252.595 230.127 252.398C229.557 251.745 229.687 252.112 229.691 251.272L230.053 250.925C232.364 250.599 254.167 250.411 255.327 250.945C255.842 251.182 256.039 251.406 256.173 251.955L255.955 252.197C254.613 252.747 251.148 252.513 249.478 252.48L249.263 285.426C245.548 279.74 244.541 280.434 238.455 283.276C216.297 293.623 196.299 280.579 193.555 256.838C191.307 237.39 199.504 213.228 221.606 210.848Z"/><path fill="#D7AF38" transform="matrix(1.728 0 0 1.728 0.0078125 0)" d="M279.927 210.84C284.852 210.129 289.791 211.942 293.573 215C299.451 219.754 298.419 213.4 300.192 212.17L300.662 212.573C301.442 215.057 301.066 230.481 300.823 233.756C300.78 234.337 300.533 234.739 300.029 235.074C299.239 234.533 298.76 232.523 298.561 231.593C296.718 222.983 292.587 213.888 282.585 213.18C274.849 212.632 267.164 215.247 266.698 224.421C265.877 235.659 276.92 238.335 285.204 241.836C296.301 246.526 305.096 254.537 304.492 267.507C304.237 272.982 301.796 278.706 297.7 282.459C293.457 286.346 287.156 287.706 281.536 287.388C275.128 286.842 270.967 283.325 265.223 281.588C263.917 283.578 263.91 285.415 262.532 286.867L262.145 286.795C261.461 285.122 261.452 260.341 262.061 259.454C263.127 259.44 263.554 260.02 263.626 261.094C264.577 275.17 272.517 287.437 288.253 284.266C298.978 282.105 300.525 269.731 290.458 264.512C279.171 258.481 263.334 253.55 261.563 238.631C259.794 223.721 264.256 212.897 279.927 210.84Z"/><path fill="#0A1B2F" transform="matrix(1.728 0 0 1.728 0.0078125 0)" d="M225.091 315.231L274.974 315.258C271.45 327.895 270.417 335.805 263.671 347.86C261.311 352.389 258.582 355.812 254.219 358.479C251.026 358.539 248.947 358.599 245.724 358.464C233.653 351.114 228.111 328.253 225.091 315.231Z"/><path fill="#0A1B2F" transform="matrix(1.728 0 0 1.728 0.0078125 0)" d="M191.384 315.351C192.542 315.139 199.642 315.22 201.098 315.221L221.883 315.246C224.387 327.294 228.372 341.128 234.886 351.695C236.526 354.355 237.724 355.517 239.467 357.813L239.285 358.12L238.136 358.057C222.413 355.855 206.238 342.036 197.413 329.382C196.123 327.532 189.192 317.429 189.374 315.854C190.086 315.301 190.306 315.465 191.384 315.351Z"/><path fill="#0A1B2F" transform="matrix(1.728 0 0 1.728 0.0078125 0)" d="M278.152 315.203C281.682 315.364 286.135 315.242 289.72 315.242L311.306 315.236C304.067 329.149 296.274 338.745 283.848 348.256C275.683 353.988 269.506 356.642 259.857 358.418C270.041 346.943 275.135 330.039 278.152 315.203Z"/><path fill="#0A1B2F" transform="matrix(1.728 0 0 1.728 0.0078125 0)" d="M217.985 146.288L218.474 146.32C218.371 146.609 215.454 148.379 214.819 148.843C210.13 152.224 205.796 156.073 201.884 160.33C190.797 172.288 183.563 186.202 178.298 201.516C170.263 201.398 161.994 201.492 153.937 201.48L153.482 201.479L153.236 201.136C153.372 200.624 153.448 200.319 153.699 199.841C167.67 173.315 189.842 155.376 217.985 146.288Z"/><path fill="#0A1B2F" transform="matrix(1.728 0 0 1.728 0.0078125 0)" d="M314.797 315.239L336.991 315.236C324.627 330.379 314.734 339.012 297.067 347.865C291.077 350.705 286.801 352.177 280.546 354.193C295.407 344.697 307.281 331.193 314.797 315.239Z"/><path fill="#0A1B2F" transform="matrix(1.728 0 0 1.728 0.0078125 0)" d="M181.243 315.288C183.291 315.172 184.971 314.618 185.881 316.798C193.933 330.958 200.549 340.396 213.838 350.505L214.325 351.575L214.141 351.888C213.762 351.901 213.083 351.902 212.734 351.951C211.24 351.684 206.421 349.495 204.831 348.774C190.436 342.246 179.139 333.431 168.535 321.846C168.015 321.189 167.545 320.501 167.062 319.816C165.702 318.639 164.254 316.67 163.105 315.221C169.152 315.284 175.173 315.186 181.243 315.288Z"/><path fill="#897A48" transform="matrix(1.728 0 0 1.728 0.0078125 0)" d="M181.243 315.288C183.291 315.172 184.971 314.618 185.881 316.798C183.447 318.272 171.551 321.46 168.535 321.846C168.015 321.189 167.545 320.501 167.062 319.816C165.702 318.639 164.254 316.67 163.105 315.221C169.152 315.284 175.173 315.186 181.243 315.288Z"/><path fill="#11202C" transform="matrix(1.728 0 0 1.728 0.0078125 0)" d="M163.105 315.221C169.152 315.284 175.173 315.186 181.243 315.288C178.431 316.962 168.737 318.698 167.062 319.816C165.702 318.639 164.254 316.67 163.105 315.221Z"/><path fill="#0A1B2F" transform="matrix(1.728 0 0 1.728 0.0078125 0)" d="M330.716 177.587C331.154 178.11 331.46 178.441 331.831 179.019C338.288 186.127 342.629 192.97 347.113 201.487L321.663 201.501C319.805 195.486 317.098 189.423 314.298 183.794L313.621 182.517C319.673 180.134 324.848 179.364 330.716 177.587Z"/><path fill="#46473C" transform="matrix(1.728 0 0 1.728 0.0078125 0)" d="M330.716 177.587C331.154 178.11 331.46 178.441 331.831 179.019C327.082 179.749 318.89 182.173 314.298 183.794L313.621 182.517C319.673 180.134 324.848 179.364 330.716 177.587Z"/><path fill="#0A1B2F" transform="matrix(1.728 0 0 1.728 0.0078125 0)" d="M285.208 147.313C303.126 153.808 318.028 163.148 330.716 177.587C324.848 179.364 319.673 180.134 313.621 182.517C305.552 168.009 298.167 158.413 284.645 148.447L285.208 147.313Z"/><path fill="#161A16" transform="matrix(1.728 0 0 1.728 0.0078125 0)" d="M213.838 350.505C215.716 351.793 217.611 353.057 219.522 354.296C217.311 353.548 214.898 352.782 212.734 351.951C213.083 351.902 213.762 351.901 214.141 351.888L214.325 351.575L213.838 350.505Z"/><path fill="#161A16" transform="matrix(1.728 0 0 1.728 0.0078125 0)" d="M280.609 145.811L285.208 147.313L284.645 148.447C283.175 147.551 282.005 146.811 280.609 145.811Z"/><path fill="#0A1B2F" transform="matrix(1.728 0 0 1.728 0.0078125 0)" d="M236.164 84.6476C237.729 84.405 238.187 84.4447 239.712 84.5408C243.965 85.5991 246.332 87.6652 248.558 91.4263C251.296 96.1243 252.057 101.716 250.676 106.975C249.36 112.014 246.818 115.421 241.957 117.447C240.008 117.893 239.55 118.07 237.554 117.677C224.191 114.073 221.551 90.9379 236.164 84.6476Z"/><path fill="#D7AF38" transform="matrix(1.728 0 0 1.728 0.0078125 0)" d="M239.712 84.5408C243.965 85.5991 246.332 87.6652 248.558 91.4263C251.296 96.1243 252.057 101.716 250.676 106.975C249.36 112.014 246.818 115.421 241.957 117.447L241.168 116.858C247.265 113.525 245.461 101.803 244.734 96.1327C244.239 92.2762 242.836 87.6854 239.433 85.4738L239.712 84.5408Z"/><path fill="#D7AF38" transform="matrix(1.728 0 0 1.728 0.0078125 0)" d="M237.554 117.677C224.191 114.073 221.551 90.9379 236.164 84.6476L236.301 85.5464C234.134 86.9197 233.361 88.3279 232.698 90.8454C231.14 96.761 231.629 113.266 237.49 116.739L237.554 117.677Z"/><path fill="#C8A742" transform="matrix(1.728 0 0 1.728 0.0078125 0)" d="M237.49 116.739C239.167 117.226 239.497 116.894 241.168 116.858L241.957 117.447C240.008 117.893 239.55 118.07 237.554 117.677L237.49 116.739Z"/><path fill="#C8A742" transform="matrix(1.728 0 0 1.728 0.0078125 0)" d="M236.164 84.6476C237.729 84.405 238.187 84.4447 239.712 84.5408L239.433 85.4738C237.977 85.2496 237.735 85.184 236.301 85.5464L236.164 84.6476Z"/><path fill="#D7AF38" transform="matrix(1.728 0 0 1.728 0.0078125 0)" d="M260.454 84.5893C261.903 84.7305 265.32 84.9788 266.567 85.2353L268.482 85.5105C273.414 85.7904 278.37 88.5088 277.837 94.1114C277.643 96.2003 276.595 98.1165 274.941 99.407C274.07 100.075 272.528 100.807 271.53 101.227C273.952 102.557 276.689 104.264 277.147 107.15C278.476 115.509 273.036 117.983 266.282 117.685C264.657 117.661 261.696 117.265 259.981 117.089L256.36 116.747L256.16 115.818C257.285 105.941 258.064 95.4479 259.42 85.6891C259.462 85.5325 259.626 85.0833 259.683 84.9171L260.454 84.5893Z"/><path fill="#D7AF38" transform="matrix(1.728 0 0 1.728 0.0078125 0)" d="M260.454 84.5893C261.903 84.7305 265.32 84.9788 266.567 85.2353L265.437 85.8588L264.867 86.1728C264.292 88.1638 263.594 97.0514 263.362 99.5614L263.177 100.635C262.717 105.975 261.994 111.438 261.646 116.752C261.01 117.192 260.895 117.043 259.981 117.089L256.36 116.747L256.16 115.818C257.285 105.941 258.064 95.4479 259.42 85.6891C259.462 85.5325 259.626 85.0833 259.683 84.9171L260.454 84.5893Z"/><path fill="#0A1B2F" transform="matrix(1.728 0 0 1.728 0.0078125 0)" d="M263.177 100.635L264.992 100.84C267.48 101.387 269.096 101.778 270.578 104.11C273.061 108.018 271.221 115.865 266.177 116.686C266.174 117.168 266.093 117.339 266.282 117.685C264.657 117.661 261.696 117.265 259.981 117.089C260.895 117.043 261.01 117.192 261.646 116.752C261.994 111.438 262.717 105.975 263.177 100.635Z"/><path fill="#C8A742" transform="matrix(1.728 0 0 1.728 0.0078125 0)" d="M261.646 116.752C263.244 116.373 264.516 116.741 266.177 116.686C266.174 117.168 266.093 117.339 266.282 117.685C264.657 117.661 261.696 117.265 259.981 117.089C260.895 117.043 261.01 117.192 261.646 116.752Z"/><path fill="#0A1B2F" transform="matrix(1.728 0 0 1.728 0.0078125 0)" d="M266.567 85.2353L268.482 85.5105C268.549 85.8301 268.676 86.3481 268.708 86.6535C275.21 91.4024 272.881 100.908 265.235 99.9507L264.992 100.84L263.177 100.635L263.362 99.5614C263.594 97.0514 264.292 88.1638 264.867 86.1728L265.437 85.8588L266.567 85.2353Z"/><path fill="#C8A742" transform="matrix(1.728 0 0 1.728 0.0078125 0)" d="M266.567 85.2353L268.482 85.5105C268.549 85.8301 268.676 86.3481 268.708 86.6535C267.438 86.2178 266.731 86.096 265.437 85.8588L266.567 85.2353Z"/><path fill="#C8A742" transform="matrix(1.728 0 0 1.728 0.0078125 0)" d="M263.177 100.635L263.362 99.5614C264.192 99.8771 264.379 99.8685 265.235 99.9507L264.992 100.84L263.177 100.635Z"/><path fill="#0A1B2F" transform="matrix(1.728 0 0 1.728 0.0078125 0)" d="M174.655 403.213C165.516 395.886 172.75 376.485 186.276 376.196C187.703 376.561 189.084 376.938 190.3 377.833C201.315 387.389 188.859 409.743 175.82 404.082L174.655 403.213Z"/><path fill="#D7AF38" transform="matrix(1.728 0 0 1.728 0.0078125 0)" d="M190.3 377.833C201.315 387.389 188.859 409.743 175.82 404.082L176.583 403.722C183.525 407.155 190.206 388.766 190.653 384.043C190.868 381.775 190.959 380.65 189.933 378.582L190.3 377.833Z"/><path fill="#D7AF38" transform="matrix(1.728 0 0 1.728 0.0078125 0)" d="M174.655 403.213C165.516 395.886 172.75 376.485 186.276 376.196L186.103 377.221C178.896 380.067 172.709 394.55 174.632 401.812C174.765 402.564 174.922 402.658 174.655 403.213Z"/><path fill="#C8A742" transform="matrix(1.728 0 0 1.728 0.0078125 0)" d="M186.276 376.196C187.703 376.561 189.084 376.938 190.3 377.833L189.933 378.582C188.529 377.494 187.893 377.436 186.103 377.221L186.276 376.196Z"/><path fill="#C8A742" transform="matrix(1.728 0 0 1.728 0.0078125 0)" d="M174.632 401.812C175.408 402.752 175.603 403.017 176.583 403.722L175.82 404.082L174.655 403.213C174.922 402.658 174.765 402.564 174.632 401.812Z"/><path fill="#D7AF38" transform="matrix(1.728 0 0 1.728 0.0078125 0)" d="M291.602 98.6908C292.682 96.9104 295.741 91.4241 297.224 90.404C297.559 90.4457 297.836 90.3786 298.057 90.6711C299.032 91.9614 299.518 112.713 299.631 116.03C299.701 118.096 299.351 121.734 300.126 123.601C300.457 124.399 302.763 125.262 303.549 125.972C306.859 119.96 309.757 112.205 312.859 106.009C313.751 104.228 315.583 99.7037 316.7 98.2755C316.751 98.053 316.667 97.3885 316.645 97.119C318.717 98.0598 323.007 99.8201 324.546 101.273L324.35 101.486C323.111 101.309 322.619 101.031 321.496 100.543C320.319 103.277 308.868 127.198 309.172 127.96C309.326 128.345 309.242 128.208 309.55 128.481L308.981 129.155C304.167 126.742 299.345 124.555 294.067 123.442C293.256 123.271 291.134 122.954 290.78 122.215C291.466 121.387 292.171 122.598 293.727 122.025C294.176 121.199 293.647 113.561 293.577 112.066C291.034 111.796 288.471 110.857 286.072 110.148C285.148 109.875 281.09 117.199 280.823 118.137C280.804 117.278 280.752 117.268 280.425 116.505C280.816 115.691 283.344 111.795 283.942 110.853C286.489 106.84 288.98 102.628 291.602 98.6908Z"/><path fill="#0A1B2F" transform="matrix(1.728 0 0 1.728 0.0078125 0)" d="M291.602 98.6908L292.461 99.0971L292.749 98.965C293.368 100.221 293.393 109.016 293.593 111.187L293.577 112.066C291.034 111.796 288.471 110.857 286.072 110.148C285.148 109.875 281.09 117.199 280.823 118.137C280.804 117.278 280.752 117.268 280.425 116.505C280.816 115.691 283.344 111.795 283.942 110.853C286.489 106.84 288.98 102.628 291.602 98.6908Z"/><path fill="#C8A742" transform="matrix(1.728 0 0 1.728 0.0078125 0)" d="M291.602 98.6908L292.461 99.0971C291.402 100.844 286.281 108.439 286.492 109.662C287.87 110.21 292.051 111.01 293.593 111.187L293.577 112.066C291.034 111.796 288.471 110.857 286.072 110.148C285.148 109.875 281.09 117.199 280.823 118.137C280.804 117.278 280.752 117.268 280.425 116.505C280.816 115.691 283.344 111.795 283.942 110.853C286.489 106.84 288.98 102.628 291.602 98.6908Z"/><path fill="#D7AF38" transform="matrix(1.728 0 0 1.728 0.0078125 0)" d="M200.206 413.944C200.418 406.622 199.314 391.506 199.138 383.329C199.123 382.596 198.113 383.132 197.085 381.97L197.225 381.68C198.443 381.654 206.01 383.924 207.274 384.539L207.335 384.864C206.354 385.1 205.603 384.886 204.598 384.727C205.02 390.578 204.839 399.22 204.972 405.39C207.747 400.451 213.745 393.035 215.935 388.33C214.902 387.712 213.884 387.072 212.881 386.408L213.026 386.17C212.89 386.178 223.514 388.245 224.442 388.426C227.411 388.66 230.49 389.172 233.445 389.606C235.113 389.835 237.067 390.154 238.717 390.318C239.417 390.629 239.469 390.503 239.815 390.98C239.495 391.969 238.828 397.297 238.632 398.598C237.353 394.245 237.897 392.469 233.275 390.602L225.203 389.486C225.592 391.825 223.475 400.345 223.86 401.924L224.182 402.093C230.362 403.365 229.54 401.409 231.561 396.612C231.84 399.815 230.709 402.989 230.522 405.985L229.905 405.918L229.436 406.345C228.482 403.187 226.772 403.563 223.687 403.087C223.194 404.272 221.617 415.329 221.981 416.177C222.189 416.742 222.294 416.815 222.304 417.375C220.418 417.139 215.604 416.842 214.21 415.995L214.144 415.577C214.571 415.399 215.619 415.612 216.174 415.676C216.857 414.427 219.763 391.828 220.172 388.957L217.425 388.397C215.79 391.129 213.308 394.563 211.461 397.294L200.206 413.944Z"/><path fill="#D7AF38" transform="matrix(1.728 0 0 1.728 0.0078125 0)" d="M242.062 390.46C246.61 390.487 254.573 389.411 258.01 392.58C260.41 394.793 260.448 400.358 257.663 402.333C256.337 403.363 255.299 403.775 253.79 404.419C261.715 407.059 257.773 413.925 260.435 419.02L260.313 419.838C260.116 419.833 259.919 419.826 259.722 419.817C249.74 419.339 259.234 405.087 247.86 404.911L246.705 404.871C246.978 408.718 246.646 413.186 246.77 417.066C246.825 418.77 247.966 418.433 249.192 419.504C247.784 419.748 245.807 419.408 244.238 419.47C242.934 419.522 240.453 420.057 239.634 419.133L239.813 418.795C240.383 418.749 240.644 418.736 241.204 418.776L241.665 418.812C242.424 417.077 241.883 394.95 241.824 391.088L242.062 390.46Z"/><path fill="#C8A742" transform="matrix(1.728 0 0 1.728 0.0078125 0)" d="M246.705 404.871L246.817 404.387C247.733 404.179 248.676 404.071 249.53 404.557C248.96 404.687 248.437 404.802 247.86 404.911L246.705 404.871Z"/><path fill="#0A1B2F" transform="matrix(1.728 0 0 1.728 0.0078125 0)" d="M246.745 391.155C248.842 391.296 250.827 391.286 252.529 392.661C255.813 395.314 255.1 399.192 252.892 402.182C250.732 404.1 249.494 404.035 246.743 404.122L246.745 391.155Z"/><path fill="#D7AF38" transform="matrix(1.728 0 0 1.728 0.0078125 0)" d="M195.38 111.343C196.398 113.909 200.036 121.526 200.535 123.452C200.025 123.881 198.624 123.603 198.268 123.909C195.603 126.206 193.251 129.347 189.686 130.34C179.119 133.283 171.576 122.56 170.83 113.274C170.307 106.759 173.337 99.4283 180.802 99.2754C182.166 99.255 183.997 99.3654 185.205 98.9048C185.91 97.9689 185.21 97.9385 185.963 96.9572C187.347 97.4076 190.165 105.195 190.674 106.977L190.456 106.771C187.354 103.777 185.908 100.084 180.864 99.9982C176.833 99.93 175.086 104.756 175.495 108.081C176.351 115.05 180.843 126.659 188.214 128.859C191.641 128.125 194.846 126.872 193.769 122.571C193.365 120.957 190.935 114.85 189.876 113.846L189.737 113.067C191.312 112.583 193.541 111.459 195.098 110.73L195.38 111.343Z"/><path fill="#D7AF38" transform="matrix(1.728 0 0 1.728 0.0078125 0)" d="M311.595 379.18C312.699 379.068 312.428 379.266 313.002 378.611C313.114 377.624 312.935 377.619 313.494 377.107C314.731 377.624 317.02 384.998 317.399 386.529C315.428 384.115 313.865 381.43 311.037 380.021C308.54 379.923 307.808 379.794 305.476 380.833C300.942 386.773 306.432 400.209 311.658 404.64C313.691 406.364 317.27 406.25 318.937 403.976C321.254 400.515 317.427 395.894 316.824 392.43L316.898 391.589C318.478 390.995 319.788 390.43 321.329 389.734L321.607 390.598C321.743 393.019 325.97 400.249 325.537 401.83C325.375 401.8 324.077 401.535 324.099 401.517C319.223 405.697 315.52 409.734 308.343 406.681C298.871 402.652 294.887 383.062 306.318 379.262C308.047 378.932 309.847 379.004 311.595 379.18Z"/><path fill="#D7AF38" transform="matrix(1.728 0 0 1.728 0.0078125 0)" d="M197.959 92.0629C199.6 91.6269 205.863 89.7161 207.011 90.1492C205.832 91.0837 205.363 91.1102 203.842 91.3693C205.936 99.6307 208.995 111.848 211.174 120.491C211.353 120.653 211.532 120.815 211.711 120.977L212.014 121.835C208.973 122.4 206.343 123.554 203.208 123.777L203.056 123.595C204.128 122.893 204.356 122.912 205.619 122.74L205.989 122.691C203.826 113.061 201.008 102.529 198.549 92.9139L197.959 92.0629Z"/><path fill="#D7AF38" transform="matrix(1.728 0 0 1.728 0.0078125 0)" d="M268.452 418.01C267.133 410.398 266.335 402.679 264.813 395.11C264.515 393.626 265.055 391.67 263.754 390.896C262.988 391.027 262.848 391.109 262.083 390.944L262.137 390.556C263.218 390.037 267.993 389.538 269.548 389.331L269.691 390.074C269.564 392.116 271.123 400.266 271.437 402.846C277.504 401.932 276.364 402.358 277.445 396.812L277.702 396.796C278.532 398.751 278.89 403.179 279.316 405.525L278.384 405.769C277.292 402.505 274.213 403.412 271.519 404.082C272.385 408.36 272.985 412.742 273.637 417.063L274.833 417.83L268.739 418.646L268.452 418.01Z"/><path fill="#D7AF38" transform="matrix(1.728 0 0 1.728 0.0078125 0)" d="M323.759 371.112C326.381 372.797 331.259 375.224 334.141 376.716C337.267 378.334 341.624 380.813 344.735 382.234L345.733 381.949C347.008 384.067 349.162 387.063 349.744 389.455C349.848 389.883 348.628 390.488 348.351 390.357C340.912 386.844 333.752 382.643 326.449 378.84C325.299 378.24 323.502 376.951 322.38 376.654C322.262 377.319 322.427 377.316 322.794 378.068L322.384 379.198C321.588 377.763 320.601 375.962 319.464 374.815L319.167 374.656C319.778 374.108 319.566 374.435 319.802 373.625L323.759 371.112Z"/><path fill="#D7AF38" transform="matrix(1.728 0 0 1.728 0.0078125 0)" d="M156.777 392.675C159.124 393.364 161.682 393.152 162.616 390.384C163.214 388.143 161.111 385.047 159.923 383.257C155.719 376.922 155.906 370.489 163.162 366.514L163.489 367.434C158.915 372.008 164.121 376.738 166.625 381.257C170.565 388.367 163.105 397.044 156.188 393.483C153.992 392.49 152.829 391.007 151.549 389.028C151.077 388.323 151.077 388.249 150.387 387.714C149.492 387.597 149.169 387.867 148.401 388.254L148.273 387.907C148.735 386.698 153.415 379.397 154.291 378.19C153.101 382.577 151.713 384.032 152.637 388.67C153.692 390.463 154.837 391.778 156.777 392.675Z"/><path fill="#D7AF38" transform="matrix(1.728 0 0 1.728 0.0078125 0)" d="M286.508 385.963C288.119 385.581 289.939 385.022 291.551 384.566L291.727 385.311C293.075 391.47 295.089 397.805 296.647 403.944C297.31 406.559 298.318 409.63 298.727 412.271L299.052 412.113C300.174 411.58 300.317 411.436 301.553 411.49L301.793 411.616C299.713 412.66 296.033 413.361 293.81 414.179L293.855 413.197C293.762 412.138 291.908 405.351 291.487 403.938C289.876 398.52 288.533 392.061 286.744 386.796L286.508 385.963Z"/><path fill="#686243" transform="matrix(1.728 0 0 1.728 0.0078125 0)" d="M365.189 179.798C367.228 182.376 368.29 184.76 367.756 188.343C366.541 196.486 361.094 204.055 355.728 210.059C355.574 210.15 355.419 210.24 355.265 210.331C354.823 209.157 354.361 207.991 353.88 206.832C358.642 200.299 368.425 188.849 364.31 180.31L365.189 179.798Z"/><defs><linearGradient id="gradient_2" gradientUnits="userSpaceOnUse" x1="132.97084" y1="293.05679" x2="142.10974" y2="314.86896"><stop offset="0" stop-color="#44483D"/><stop offset="1" stop-color="#867545"/></linearGradient></defs><path fill="url(#gradient_2)" transform="matrix(1.728 0 0 1.728 0.0078125 0)" d="M143.913 287.462C144.238 288.382 144.575 289.298 144.924 290.209C141.49 292.673 133.798 304.769 132.721 309.058C131.199 315.116 131.054 315.755 133.744 321.153C130.712 318.634 128.707 315.862 129.231 311.764C130.207 304.146 138.207 292.105 143.913 287.462Z"/><path fill="#897A48" transform="matrix(1.728 0 0 1.728 0.0078125 0)" d="M162.381 320.566C162.986 321.317 163.6 322.059 164.224 322.794C163.871 322.941 163.465 323.093 163.094 323.164C152.765 325.134 143.112 326.643 133.823 321.123C146.537 324.653 150.399 321.744 162.111 320.591L162.381 320.566Z"/><path fill="#C8A742" transform="matrix(1.728 0 0 1.728 0.0078125 0)" d="M322.794 378.068C325.207 382.055 327.592 386.058 329.949 390.078C331.254 392.281 332.926 395.267 334.45 397.274C335.443 396.765 336.569 396.065 337.638 395.944L337.925 396.167C337.291 397.321 332.742 399.545 331.361 400.071L330.972 400.02C331.531 399.061 332.348 398.647 333.283 398.006C331.531 393.839 325.052 383.637 322.384 379.198L322.794 378.068Z"/><path fill="#C8A742" transform="matrix(1.728 0 0 1.728 0.0078125 0)" d="M334.66 365.615C333.449 366.396 333.176 366.506 331.806 366.972L331.969 366.587C333.281 365.485 337.004 362.712 338.646 362.609L338.636 362.908C337.744 364.022 337.096 364.313 335.89 365.062C338.246 369.883 342.874 377.029 345.733 381.949L344.735 382.234C344.369 380.659 336.175 367.634 334.66 365.615Z"/><path fill="#D7AF38" transform="matrix(1.728 0 0 1.728 0.0078125 0)" d="M225.023 416.87C232.96 417.581 233.12 418.397 236.603 410.944C236.916 412.364 236.067 417.577 235.818 419.327C232.103 418.663 227.875 418.376 224.416 417.656L225.023 416.87Z"/><path fill="#D7AF38" transform="matrix(1.728 0 0 1.728 0.0078125 0)" d="M327.039 123.871C326.443 126.956 323.684 132.272 322.315 135.294C319.866 134.132 317.402 133.002 314.922 131.907L315.241 131.076C322.95 134.259 323.342 129.057 327.039 123.871Z"/><path fill="#686243" transform="matrix(1.728 0 0 1.728 0.0078125 0)" d="M335.431 176.808C338.118 175.273 351.141 174.989 354.596 175.36C353.537 175.779 352.464 175.931 351.335 176.224C349.4 176.332 336.973 177.5 336.461 178.028C336.121 177.619 335.777 177.212 335.431 176.808Z"/><path fill="#D7AF38" transform="matrix(1.728 0 0 1.728 0.0078125 0)" d="M224.483 110.804C225.07 112.993 225.751 115.898 226.42 117.981L218.507 120.114C218.341 119.477 218.372 119.812 218.737 119.028C223.041 117.647 223.741 116.372 223.729 112.016L224.123 112.015L224.483 110.804Z"/><path fill="#D7AF38" transform="matrix(1.728 0 0 1.728 0.0078125 0)" d="M287.076 409.504C287.433 411.61 287.616 413.865 287.97 415.858C285.981 416.108 283.994 416.378 282.011 416.669L281.094 415.695C284.664 415.043 285.863 413.285 286.043 409.777L287.076 409.504Z"/><path fill="#D7AF38" transform="matrix(1.728 0 0 1.728 0.0078125 0)" d="M276.614 388.324C278.944 387.934 281.272 387.532 283.597 387.115C283.863 389.129 284.632 393.614 284.679 395.418C283.148 392.49 282.592 390.04 279.121 389.173L277.958 388.861L278.084 388.812L277.859 388.66L278.138 388.727L277.749 388.514C277.347 388.519 277.556 388.535 277.037 388.421L276.614 388.324Z"/><path fill="#D7AF38" transform="matrix(1.728 0 0 1.728 0.0078125 0)" d="M172.377 369.446C172.873 370.432 173.23 371.461 174.102 372.055C175.669 372.1 175.051 371.069 175.899 371.554C175.808 373.238 171.923 378.761 170.715 380.189C171.606 376.675 172.973 374.137 172.043 370.637L172.377 369.446Z"/><path fill="#D7AF38" transform="matrix(1.728 0 0 1.728 0.0078125 0)" d="M280.425 116.505C280.752 117.268 280.804 117.278 280.823 118.137C282.051 119.208 282.652 119.057 284.03 120.22L283.817 120.419C282.425 120.208 276.801 119.175 276.072 118.257C277.588 117.328 277.646 119.141 280.176 116.745L280.425 116.505Z"/><path fill="#C8A742" transform="matrix(1.728 0 0 1.728 0.0078125 0)" d="M163.162 366.514C164.238 366.132 164.899 365.897 166.004 365.643C168.93 366.377 170.616 366.767 172.377 369.446L172.043 370.637C169.868 367.202 167.367 366.049 163.489 367.434L163.162 366.514Z"/><path fill="#C8A742" transform="matrix(1.728 0 0 1.728 0.0078125 0)" d="M269.548 389.331C271.15 388.882 274.851 388.501 276.614 388.324L277.037 388.421C277.556 388.535 277.347 388.519 277.749 388.514L278.138 388.727L277.859 388.66L278.084 388.812L277.958 388.861L279.121 389.173C275.863 389.255 272.457 390.018 269.691 390.074L269.548 389.331Z"/><path fill="#C8A742" transform="matrix(1.728 0 0 1.728 0.0078125 0)" d="M273.637 417.063C276.21 416.567 278.421 416.266 281.094 415.695L282.011 416.669C279.626 417.107 277.233 417.494 274.833 417.83L273.637 417.063Z"/><path fill="#897A48" transform="matrix(1.728 0 0 1.728 0.0078125 0)" d="M354.596 175.36C357.859 175.823 359.702 176.325 362.569 178.052C358.298 177.011 355.69 176.309 351.335 176.224C352.464 175.931 353.537 175.779 354.596 175.36Z"/><path fill="#C8A742" transform="matrix(1.728 0 0 1.728 0.0078125 0)" d="M211.711 120.977C212.479 120.626 217.441 119.403 218.737 119.028C218.372 119.812 218.341 119.477 218.507 120.114C216.352 120.721 214.187 121.294 212.014 121.835L211.711 120.977Z"/><path fill="#C8A742" transform="matrix(1.728 0 0 1.728 0.0078125 0)" d="M309.55 128.481C310.595 128.881 314.285 130.525 315.241 131.076L314.922 131.907C312.929 131.018 310.948 130.1 308.981 129.155L309.55 128.481Z"/><path fill="#C8A742" transform="matrix(1.728 0 0 1.728 0.0078125 0)" d="M259.42 85.6891C258.327 85.1346 257.709 85.8689 256.704 84.6242L256.936 84.4266C258.293 84.1877 259.112 84.3871 260.454 84.5893L259.683 84.9171C259.626 85.0833 259.462 85.5325 259.42 85.6891Z"/><path fill="#C8A742" transform="matrix(1.728 0 0 1.728 0.0078125 0)" d="M223.729 112.016C223.357 110.3 223.046 108.133 223.157 106.382C223.681 107.707 224.302 109.411 224.483 110.804L224.123 112.015L223.729 112.016Z"/><path fill="#C8A742" transform="matrix(1.728 0 0 1.728 0.0078125 0)" d="M256.36 116.747C255.226 116.778 254.569 116.928 253.728 116.187L253.819 115.789C254.658 115.366 255.216 115.617 256.16 115.818L256.36 116.747Z"/><path fill="#C8A742" transform="matrix(1.728 0 0 1.728 0.0078125 0)" d="M229.436 406.345L229.905 405.918L230.522 405.985C230.455 407.095 230.523 407.686 230.013 408.634L229.645 408.835C229.135 408.023 229.334 407.379 229.436 406.345Z"/><path fill="#C8A742" transform="matrix(1.728 0 0 1.728 0.0078125 0)" d="M312.633 95.5245C314.613 96.0768 314.833 96.1826 316.645 97.119C316.667 97.3885 316.751 98.053 316.7 98.2755C315.07 97.3275 314.032 96.7908 312.633 95.5245Z"/><path fill="#C8A742" transform="matrix(1.728 0 0 1.728 0.0078125 0)" d="M291.551 384.566C292.567 384.231 293.173 383.914 294.197 384.102L294.362 384.436C293.709 385.108 292.64 385.262 291.727 385.311L291.551 384.566Z"/><path fill="#C8A742" transform="matrix(1.728 0 0 1.728 0.0078125 0)" d="M319.802 373.625C319.566 374.435 319.778 374.108 319.167 374.656L319.464 374.815C318.689 375.072 317.417 376.094 316.699 375.568C317.453 374.734 318.767 374.169 319.802 373.625Z"/><path fill="#C8A742" transform="matrix(1.728 0 0 1.728 0.0078125 0)" d="M221.981 416.177C222.992 416.423 224.006 416.654 225.023 416.87L224.416 417.656C223.638 417.602 223.065 417.503 222.304 417.375C222.294 416.815 222.189 416.742 221.981 416.177Z"/><path fill="#C8A742" transform="matrix(1.728 0 0 1.728 0.0078125 0)" d="M316.824 392.43C316.06 392.838 315.192 393.381 314.379 393.207L314.373 392.837C315.101 392.024 315.839 391.922 316.898 391.589L316.824 392.43Z"/><path fill="#C8A742" transform="matrix(1.728 0 0 1.728 0.0078125 0)" d="M293.81 414.179C292.957 414.494 292.418 414.808 291.542 414.635L291.499 414.296C292.406 413.501 292.64 413.518 293.855 413.197L293.81 414.179Z"/><path fill="#C8A742" transform="matrix(1.728 0 0 1.728 0.0078125 0)" d="M198.549 92.9139C197.329 93.0477 196.783 93.5362 195.576 93.0789L195.697 93.0592L196.002 92.587C196.613 92.2835 197.271 92.2084 197.959 92.0629L198.549 92.9139Z"/><path fill="#C8A742" transform="matrix(1.728 0 0 1.728 0.0078125 0)" d="M321.329 389.734C322.156 389.392 322.676 389.058 323.539 389.211L323.662 389.542C323.042 390.24 322.501 390.31 321.607 390.598L321.329 389.734Z"/><path fill="#C8A742" transform="matrix(1.728 0 0 1.728 0.0078125 0)" d="M189.876 113.846C188.886 114.472 188.77 114.616 187.65 114.777L187.394 114.538C187.933 113.724 188.821 113.47 189.737 113.067L189.876 113.846Z"/><path fill="#C8A742" transform="matrix(1.728 0 0 1.728 0.0078125 0)" d="M286.744 386.796C285.705 387.126 285.364 387.321 284.313 387.217L284.145 386.951C284.852 386.292 285.561 386.216 286.508 385.963L286.744 386.796Z"/><path fill="#C8A742" transform="matrix(1.728 0 0 1.728 0.0078125 0)" d="M260.435 419.02C261.614 418.673 261.604 418.457 262.558 418.761L262.523 419.073C261.701 419.717 261.394 419.672 260.313 419.838L260.435 419.02Z"/><path fill="#C8A742" transform="matrix(1.728 0 0 1.728 0.0078125 0)" d="M238.717 390.318C239.931 390.306 240.859 390.247 242.062 390.46L241.824 391.088C240.97 391.127 240.641 391.079 239.815 390.98C239.469 390.503 239.417 390.629 238.717 390.318Z"/><path fill="#C8A742" transform="matrix(1.728 0 0 1.728 0.0078125 0)" d="M195.098 110.73C196.041 110.26 196.399 109.951 197.392 110.063L197.414 110.398C196.661 111.032 196.354 111.049 195.38 111.343L195.098 110.73Z"/><path fill="#C8A742" fill-opacity="0.98823529" transform="matrix(1.728 0 0 1.728 0.0078125 0)" d="M268.739 418.646C267.938 418.854 266.985 419.266 266.444 418.516C267.246 417.92 267.265 418.112 268.452 418.01L268.739 418.646Z"/><path fill="#C8A742" transform="matrix(1.728 0 0 1.728 0.0078125 0)" d="M286.043 409.777C286.018 408.943 285.831 407.988 286.55 407.477C287.071 408.128 287.01 408.659 287.076 409.504L286.043 409.777Z"/><path fill="#C8A742" transform="matrix(1.728 0 0 1.728 0.0078125 0)" d="M278.384 405.769L279.316 405.525C279.464 406.22 279.766 407.074 279.196 407.579C278.542 406.93 278.682 406.8 278.384 405.769Z"/><path fill="#686243" transform="matrix(1.728 0 0 1.728 0.0078125 0)" d="M364.31 180.31C363.904 179.822 363.608 179.617 363.597 179.009C364.37 179.006 364.408 179.246 365.189 179.798L364.31 180.31Z"/></svg>